<svg xmlns="http://www.w3.org/2000/svg" viewBox="0 0 1024 512"><title>welcome-to-yara3i</title><g id="eb59ea25-e9d9-4592-b793-5a3b0f39eebe" data-name="bg-image"><rect width="1024" height="512" style="fill:#594a42"/></g><g id="ec05b83b-e18c-4722-92e9-5f3d207f3193" data-name="Button"><rect x="407.64" y="440" width="208.72" height="60.57" rx="8.93" ry="8.93" style="fill:#f7ca16"/></g><g id="5be615ba-d7c2-405b-aecf-f51161adcce2" data-name="Logo"><path d="M625.62,215.43V83.11L524.09,16.95,422.55,83.11V215.43l101.53,66.16" style="fill:#fff"/><path d="M524.09,38,438.7,93.63V204.91l85.39,55.64,85.39-55.64V93.63ZM534,173.12l0,7.59L509,200.22a3.26,3.26,0,0,0-1.52,2.48,2.55,2.55,0,0,0,.53,1.51,2,2,0,0,0,1.39.53,4.75,4.75,0,0,0,2.74-1.18l21.79-16.75-.11,39-10.22,6.58.07-24.56-6,4.31a9.45,9.45,0,0,1-4.33,1.09q-4.61,0-9.12-5.21-3.33-5.31-3.32-9.31a8.2,8.2,0,0,1,3.45-6.68l19.46-15.21v-1.47h0l0-8.08-12.89,0q-7.87,0-7.84-13,0-13.59,7.91-13.56l6.89,0,0,10.2h-3.47q-4.45,0-4.45,3t4.44,3.11l9.46,0,0-17.46,10.21-4.87-.1,38.35Zm.13-46.51-49-.13,0-10.2,49,.13Zm-24.43-19.32,0-10.2,14.28,0,0-6.36h0l0-12.65-14.73,0,0-10.2,24.93.07-.07,24.89h0v4.32l6.85,0q3.51.62,3.82,6.95l-5.32,6.27q-.24-3-5.38-3ZM544.92,214a3.6,3.6,0,0,1-2.72,1.18,3.68,3.68,0,0,1-2.75-1.17,3.88,3.88,0,0,1-1.11-2.8,3.81,3.81,0,0,1,1.13-2.77,3.71,3.71,0,0,1,2.76-1.13,3.62,3.62,0,0,1,2.69,1.19,3.82,3.82,0,0,1,1.13,2.74A3.9,3.9,0,0,1,544.92,214Zm0-9.38a3.6,3.6,0,0,1-2.72,1.18,3.68,3.68,0,0,1-2.75-1.17,3.88,3.88,0,0,1-1.11-2.8A3.81,3.81,0,0,1,539.5,199a3.71,3.71,0,0,1,2.76-1.13,3.62,3.62,0,0,1,2.69,1.19,3.82,3.82,0,0,1,1.13,2.74A3.9,3.9,0,0,1,544.95,204.6Zm.31-113.9a3.6,3.6,0,0,1-2.72,1.18,3.68,3.68,0,0,1-2.75-1.17,3.88,3.88,0,0,1-1.11-2.8,3.81,3.81,0,0,1,1.13-2.77A3.71,3.71,0,0,1,542.56,84a3.62,3.62,0,0,1,2.69,1.19,3.82,3.82,0,0,1,1.13,2.74A3.9,3.9,0,0,1,545.26,90.7Zm0-9.38a3.6,3.6,0,0,1-2.72,1.18,3.68,3.68,0,0,1-2.75-1.17,3.88,3.88,0,0,1-1.11-2.8,3.81,3.81,0,0,1,1.13-2.77,3.71,3.71,0,0,1,2.76-1.13,3.62,3.62,0,0,1,2.69,1.19,3.82,3.82,0,0,1,1.13,2.74A3.9,3.9,0,0,1,545.28,81.32Z" style="fill:#544842"/></g><g id="a0a3c94b-8559-45ee-89de-3724f6ab93ae" data-name="Layer 6"><path d="M438.6,481.82a5.16,5.16,0,0,1-2.59-.63,4.17,4.17,0,0,1-1.68-1.77,5.68,5.68,0,0,1-.58-2.61,9.08,9.08,0,0,1,.24-2.06,8.23,8.23,0,0,1,.67-1.89H437a16.25,16.25,0,0,0-.44,2,12.64,12.64,0,0,0-.17,2,3.1,3.1,0,0,0,.65,2.07,2.15,2.15,0,0,0,1.73.77h.53a2.55,2.55,0,0,0,2-.75,3.09,3.09,0,0,0,.65-2.1v-8.14h2.66v8.21q0,4.92-5.27,4.92Zm.59-13.14a1.15,1.15,0,0,1-.88-.34,1.32,1.32,0,0,1-.32-.94,1.34,1.34,0,0,1,.32-.95,1.14,1.14,0,0,1,.88-.34,1.12,1.12,0,0,1,.86.34,1.34,1.34,0,0,1,.32,1,1.31,1.31,0,0,1-.33.94A1.12,1.12,0,0,1,439.2,468.68Z" style="fill:#594a42"/><path d="M446.28,465.45a3.14,3.14,0,0,1,.6-1.71,1.54,1.54,0,0,1,1.24-.59,1.8,1.8,0,0,1,.72.15,7.14,7.14,0,0,1,.68.34l.63.34a1.24,1.24,0,0,0,.55.15.74.74,0,0,0,.59-.23,2,2,0,0,0,.34-.77h.91a3.1,3.1,0,0,1-.57,1.69,1.53,1.53,0,0,1-1.27.62,1.68,1.68,0,0,1-.69-.15q-.34-.15-.68-.33l-.64-.34a1.32,1.32,0,0,0-.58-.15.76.76,0,0,0-.6.23,1.76,1.76,0,0,0-.33.76Zm.7,9.94h3.23l-2.3-9h2.78l2.13,9h.12a1.61,1.61,0,0,0,1.3-.49,2.43,2.43,0,0,0,.41-1.57V464h2.66v9.56a4.12,4.12,0,0,1-1,2.91,3.59,3.59,0,0,1-2.78,1.09H447Z" style="fill:#594a42"/><path d="M460.71,464h2.66v13.57h-2.66Z" style="fill:#594a42"/><path d="M483,475.39c.06,0,.09,0,.09.07v2a.08.08,0,0,1-.09.09H477.6a5.79,5.79,0,0,1-3.85-1.16,4,4,0,0,1-1.37-3.22,4.37,4.37,0,0,1,.63-2.34,4.12,4.12,0,0,1,1.8-1.57,6.47,6.47,0,0,1,2.79-.55h.5v-.87h2.69v7.57Zm-4.89,0v-4.55h-.47a2.69,2.69,0,0,0-1.88.6,2.23,2.23,0,0,0-.66,1.74,2.08,2.08,0,0,0,.65,1.64,2.7,2.7,0,0,0,1.86.58Zm-1.67-8.69a1.14,1.14,0,0,1-.87-.34,1.32,1.32,0,0,1-.32-.94,1.34,1.34,0,0,1,.32-.95,1.14,1.14,0,0,1,.88-.34,1.12,1.12,0,0,1,.86.34,1.35,1.35,0,0,1,.31,1,1.31,1.31,0,0,1-.32.95A1.13,1.13,0,0,1,476.46,466.69Zm3,0a1.14,1.14,0,0,1-.87-.34,1.32,1.32,0,0,1-.32-.94,1.34,1.34,0,0,1,.32-.95,1.14,1.14,0,0,1,.88-.34,1.12,1.12,0,0,1,.87.34,1.35,1.35,0,0,1,.31.95,1.31,1.31,0,0,1-.33.94A1.13,1.13,0,0,1,479.5,466.69Z" style="fill:#594a42"/><path d="M493.79,475.39c.06,0,.09,0,.09.07v2a.08.08,0,0,1-.09.09h-2.27a5.85,5.85,0,0,1-1.74-.28,6.06,6.06,0,0,1-1.56-.72,6.3,6.3,0,0,1-3.32,1h-2.07a.08.08,0,0,1-.09-.09v-2s0-.07.09-.07h1.79a4.55,4.55,0,0,0,.88-.1,3.24,3.24,0,0,0,.79-.24,5.5,5.5,0,0,1-1.12-1.29,11,11,0,0,1-1-1.93,9,9,0,0,1-.59-2,8.11,8.11,0,0,1,2.4-1.37,7.52,7.52,0,0,1,2.61-.5A9.07,9.07,0,0,1,493,469a8,8,0,0,1-.78,3.55,5.9,5.9,0,0,1-2.13,2.47,3.36,3.36,0,0,0,1.61.36Zm-5.54-1.45a4.28,4.28,0,0,0,2.25-3.53,5.31,5.31,0,0,0-2-.32,4.28,4.28,0,0,0-1.24.2,3.51,3.51,0,0,0-1,.48,6.63,6.63,0,0,0,.81,1.85A4.32,4.32,0,0,0,488.26,473.94Z" style="fill:#594a42"/><path d="M493.62,477.53a.08.08,0,0,1-.09-.09v-2s0-.07.09-.07h2.23V464h2.66v13.57Z" style="fill:#594a42"/><path d="M507,475.39c.06,0,.09,0,.09.07v2a.08.08,0,0,1-.09.09h-4.89V464h2.66v11.42Z" style="fill:#594a42"/><path d="M506.8,477.53a.08.08,0,0,1-.09-.09v-2s0-.07.09-.07h2.1V464h2.67v7.86a5.19,5.19,0,0,1,4.84-3.3,4.39,4.39,0,0,1,3.3,1.16,5,5,0,0,1,1.12,3.57v2.15h2.33c.06,0,.09,0,.09.07v2a.08.08,0,0,1-.09.09Zm11.37-2.14v-2.2a2.66,2.66,0,0,0-.6-1.91,2.47,2.47,0,0,0-1.84-.61q-2.41,0-4.16,3.33v1.4Z" style="fill:#594a42"/><path d="M525,475.39a6.08,6.08,0,0,1-.48-2.46,6,6,0,0,1,.26-1.67,6.65,6.65,0,0,1,.64-1.54,7.64,7.64,0,0,1,1.84-.76,6.65,6.65,0,0,1,1.7-.26,4.7,4.7,0,0,1,2.22.52,3.75,3.75,0,0,1,1.55,1.48,4.37,4.37,0,0,1,.55,2.22,5.09,5.09,0,0,1-.33,1.84,1.8,1.8,0,0,0,.74.49,3.19,3.19,0,0,0,1,.14h.1c.06,0,.09,0,.09.07v2a.08.08,0,0,1-.09.09h-.1a4.57,4.57,0,0,1-1.63-.27,3.57,3.57,0,0,1-1.31-.93,4.61,4.61,0,0,1-1.56.89,5.58,5.58,0,0,1-1.81.3H523a.08.08,0,0,1-.09-.09v-2s0-.07.09-.07Zm2-2.08a6.44,6.44,0,0,0,.41,2.08h.67a2.46,2.46,0,0,0,1.81-.72,2.38,2.38,0,0,0,.73-1.75,2.31,2.31,0,0,0-.46-1.51,1.51,1.51,0,0,0-1.23-.56,3.34,3.34,0,0,0-1.67.5A7.36,7.36,0,0,0,527,473.3Z" style="fill:#594a42"/><path d="M534.63,477.53a.08.08,0,0,1-.09-.09v-2s0-.07.09-.07h2.23V464h2.66v13.57Z" style="fill:#594a42"/><path d="M543.1,464h2.66v13.57H543.1Z" style="fill:#594a42"/><path d="M554.69,463l1-.17a1.57,1.57,0,0,1-.58-.48,1.2,1.2,0,0,1-.23-.73,1.45,1.45,0,0,1,.53-1.19,2.22,2.22,0,0,1,1.43-.43,3,3,0,0,1,1.46.32l-.36.91a2.14,2.14,0,0,0-1-.23.86.86,0,0,0-.62.23.84.84,0,0,0-.24.63.79.79,0,0,0,.16.49,1,1,0,0,0,.38.31l.31-.05q.91-.14,1.45-.18v1q-.64,0-2.11.22t-1.66.23Zm.72,2h2.66v12.5H555.4Z" style="fill:#594a42"/><path d="M560.65,475.39h6a11.11,11.11,0,0,0-.89-2.66,6.18,6.18,0,0,0-1.34-1.75,6.88,6.88,0,0,0-2-1.23l1-2.5a8.49,8.49,0,0,1,3.79,2.91,13.38,13.38,0,0,1,2.11,5.23h2.35c.06,0,.09,0,.09.07v2a.08.08,0,0,1-.09.09h-11Z" style="fill:#594a42"/><path d="M571.45,477.53a.08.08,0,0,1-.09-.09v-2s0-.07.09-.07h2.23v-6.7h2.66v8.84Zm3.41,4.46a1.15,1.15,0,0,1-.88-.34,1.32,1.32,0,0,1-.32-.94,1.34,1.34,0,0,1,.32-.95,1.14,1.14,0,0,1,.88-.34,1.12,1.12,0,0,1,.86.34,1.33,1.33,0,0,1,.32,1,1.31,1.31,0,0,1-.33.94A1.12,1.12,0,0,1,574.86,482Z" style="fill:#594a42"/><path d="M579.65,464h2.66v13.57h-2.66Z" style="fill:#594a42"/><path d="M40.66,418.81a9.65,9.65,0,0,1-6.73-2.19,7.86,7.86,0,0,1-2.41-6.13,8.62,8.62,0,0,1,2.67-6.7,10.24,10.24,0,0,1,7.19-2.44h2.37v-2.27h3.08V416h4.1q.18,0,.18.14v2.5a.16.16,0,0,1-.18.18ZM43.76,416V404.15H41.49a7,7,0,0,0-5,1.66,6.07,6.07,0,0,0-1.77,4.65,5.35,5.35,0,0,0,1.53,4.11A6.14,6.14,0,0,0,40.59,416Zm-5-20.23a2.11,2.11,0,0,1-1.43-.51,2.61,2.61,0,0,1,0-3.3,2.11,2.11,0,0,1,1.43-.51,2,2,0,0,1,1.46.55,2.2,2.2,0,0,1,.54,1.61,2.23,2.23,0,0,1-.54,1.6A1.93,1.93,0,0,1,38.8,395.76Zm6.22,0a2,2,0,0,1-1.48-.56,2.64,2.64,0,0,1,0-3.2,2,2,0,0,1,1.49-.56,1.9,1.9,0,0,1,1.49.59,2.61,2.61,0,0,1,0,3.15A1.9,1.9,0,0,1,45,395.76Z" style="fill:#fff"/><path d="M50.58,418.81a.16.16,0,0,1-.18-.18v-2.5q0-.14.18-.14H55V402.42H58v6.66A15,15,0,0,1,62.27,403,8.94,8.94,0,0,1,68,401q4.08,0,6.16,2.21t2.08,6.93V416H81q.19,0,.19.14v2.5q0,.18-.19.18ZM73.18,416v-5.71a7,7,0,0,0-1.45-4.89,5.7,5.7,0,0,0-4.39-1.56q-5.54,0-9.32,9.21v3Z" style="fill:#fff"/><path d="M98.16,418.81a13.08,13.08,0,0,1-3.25-.45A15.23,15.23,0,0,1,91.5,417a13.38,13.38,0,0,1-6.7,1.79H80.64a.16.16,0,0,1-.18-.18v-2.5q0-.14.18-.14h4.13a11.07,11.07,0,0,0,4.29-.72,14.18,14.18,0,0,1-2.84-2.89,21.44,21.44,0,0,1-2.46-4.08,16.05,16.05,0,0,1-1.33-4.16,15.13,15.13,0,0,1,4.44-2.9,12.71,12.71,0,0,1,5-1.05,15.24,15.24,0,0,1,4.57.72,14.73,14.73,0,0,1,4,1.92,15,15,0,0,1-1.72,7A14.6,14.6,0,0,1,94,415.24a11.24,11.24,0,0,0,4,.76h4.36q.18,0,.18.14v2.5a.16.16,0,0,1-.18.18Zm-6.63-5.15a13.56,13.56,0,0,0,4.13-4.13,11.2,11.2,0,0,0,1.53-5.19A10.92,10.92,0,0,0,92,403a10.78,10.78,0,0,0-6.12,2.09,13.91,13.91,0,0,0,2,4.71A15.67,15.67,0,0,0,91.53,413.66Zm-.46-17.17a2,2,0,0,1-1.48-.56,2.64,2.64,0,0,1,0-3.2,2,2,0,0,1,1.49-.56,1.9,1.9,0,0,1,1.49.59,2.61,2.61,0,0,1,0,3.15A1.9,1.9,0,0,1,91.08,396.48Z" style="fill:#fff"/><path d="M102,418.81a.16.16,0,0,1-.18-.18v-2.5q0-.14.18-.14h4.75V401.35H110V416h4.69q.18,0,.18.14v2.5a.16.16,0,0,1-.18.18Zm6.22-20.88a2,2,0,0,1-1.48-.56,2.64,2.64,0,0,1,0-3.2,2,2,0,0,1,1.49-.56,1.9,1.9,0,0,1,1.49.59,2.61,2.61,0,0,1,0,3.15A1.9,1.9,0,0,1,108.25,397.92Z" style="fill:#fff"/><path d="M114.3,418.81a.16.16,0,0,1-.18-.18v-2.5q0-.14.18-.14h4.46a17.49,17.49,0,0,1-1.34-6.15,12.29,12.29,0,0,1,1.3-5.73,10.45,10.45,0,0,1,3-1.76,9.88,9.88,0,0,1,3.55-.65,7.71,7.71,0,0,1,4,1,6.6,6.6,0,0,1,2.62,2.82,9.15,9.15,0,0,1,.91,4.15,10.81,10.81,0,0,1-1,4.89,7.39,7.39,0,0,1-2.9,3.16,8.3,8.3,0,0,1-4.28,1.1Zm6.36-9.58A16.78,16.78,0,0,0,122,416h2.55a4.41,4.41,0,0,0,3.69-1.63,7.53,7.53,0,0,0,1.28-4.73,5.49,5.49,0,0,0-1.24-3.71,3.84,3.84,0,0,0-3-1.44,6.44,6.44,0,0,0-2.24.4,7.27,7.27,0,0,0-2,1.07,5.51,5.51,0,0,0-.37,1.54Q120.66,408.28,120.66,409.23Z" style="fill:#fff"/><path d="M156,418.81v.86a8.94,8.94,0,0,1-1.65,5.71,5.73,5.73,0,0,1-4.76,2.07,8,8,0,0,1-3.67-1l.93-2.41a7.48,7.48,0,0,0,1.44.5,6.19,6.19,0,0,0,1.23.11,2.91,2.91,0,0,0,2.53-1.32,6,6,0,0,0,.91-3.48V401.35h3V416h4.45q.19,0,.19.14v2.5q0,.18-.19.18Z" style="fill:#fff"/><path d="M160.12,418.81a.16.16,0,0,1-.18-.18v-2.5q0-.14.18-.14H166V401.35h3.2V416h5.4q.18,0,.18.14v2.5a.16.16,0,0,1-.18.18Zm4.43,7.21a2.11,2.11,0,0,1-1.43-.51,2.61,2.61,0,0,1,0-3.3,2.11,2.11,0,0,1,1.43-.51,2,2,0,0,1,1.46.55,2.2,2.2,0,0,1,.54,1.61,2.23,2.23,0,0,1-.54,1.6A1.93,1.93,0,0,1,164.55,426Zm6.22,0a2,2,0,0,1-1.48-.56,2.64,2.64,0,0,1,0-3.2,2,2,0,0,1,1.49-.56,1.9,1.9,0,0,1,1.49.59,2.61,2.61,0,0,1,0,3.15A1.9,1.9,0,0,1,170.78,426Z" style="fill:#fff"/><path d="M174.2,418.81a.16.16,0,0,1-.18-.18v-2.5q0-.14.18-.14h5.54a6.85,6.85,0,0,1-1.85-2.65,9.64,9.64,0,0,1-.7-3.74,8,8,0,0,1,8.56-8.61,12.48,12.48,0,0,1,2.86.31,9.33,9.33,0,0,1,2.15.75l-1,2.69a11,11,0,0,0-4.22-.93q-5.12,0-5.12,5.94a7.69,7.69,0,0,0,1.22,4.53,3.76,3.76,0,0,0,3.21,1.73h6.42v2.81Zm10.58-20.88a2,2,0,0,1-1.48-.56,2.64,2.64,0,0,1,0-3.2,2,2,0,0,1,1.49-.56,1.9,1.9,0,0,1,1.49.59,2.61,2.61,0,0,1,0,3.15A1.9,1.9,0,0,1,184.79,397.92Z" style="fill:#fff"/><path d="M207.5,418.4a57.67,57.67,0,0,1,3.09-8.42H213q-1.05,4.57-1.76,8.82h-3.5Z" style="fill:#fff"/><path d="M226.83,418.81a9.65,9.65,0,0,1-6.73-2.19,7.86,7.86,0,0,1-2.41-6.13,8.62,8.62,0,0,1,2.67-6.7,10.24,10.24,0,0,1,7.19-2.44h2.37v-2.27H233V416h4.1q.18,0,.18.14v2.5a.16.16,0,0,1-.18.18Zm3.09-2.81V404.15h-2.27a7,7,0,0,0-5,1.66,6.07,6.07,0,0,0-1.77,4.65,5.35,5.35,0,0,0,1.53,4.11,6.14,6.14,0,0,0,4.34,1.42Zm-5-20.23a2.11,2.11,0,0,1-1.43-.51,2.61,2.61,0,0,1,0-3.3,2.11,2.11,0,0,1,1.43-.51,2,2,0,0,1,1.46.55,2.2,2.2,0,0,1,.54,1.61,2.23,2.23,0,0,1-.54,1.6A1.93,1.93,0,0,1,225,395.76Zm6.22,0a2,2,0,0,1-1.48-.56,2.64,2.64,0,0,1,0-3.2,2,2,0,0,1,1.49-.56,1.9,1.9,0,0,1,1.49.59,2.61,2.61,0,0,1,0,3.15A1.9,1.9,0,0,1,231.19,395.76Z" style="fill:#fff"/><path d="M236.75,418.81a.16.16,0,0,1-.18-.18v-2.5q0-.14.18-.14h5.47a7,7,0,0,1-1.39-2.51,9.5,9.5,0,0,1-.47-2.92,8.74,8.74,0,0,1,2.66-6.75,10.19,10.19,0,0,1,7.2-2.46h4.71V416h3.81a.17.17,0,0,1,.16.09l0,.09v2.5q0,.14-.18.14ZM251.86,416V404.15h-1.55a6.94,6.94,0,0,0-5,1.7,6.22,6.22,0,0,0-1.78,4.72q0,5.43,4.92,5.43Zm-3.46-18.07a2,2,0,0,1-1.48-.56,2.64,2.64,0,0,1,0-3.2,2,2,0,0,1,1.49-.56,1.9,1.9,0,0,1,1.49.59,2.61,2.61,0,0,1,0,3.15A1.9,1.9,0,0,1,248.4,397.92Z" style="fill:#fff"/><path d="M258.39,418.81a.16.16,0,0,1-.18-.18v-2.5q0-.14.18-.14h5.84V401.35h3.2V416h5.4q.18,0,.18.14v2.5a.16.16,0,0,1-.18.18Zm4.43,7.21a2.11,2.11,0,0,1-1.43-.51,2.61,2.61,0,0,1,0-3.3,2.11,2.11,0,0,1,1.43-.51,2,2,0,0,1,1.46.55,2.2,2.2,0,0,1,.54,1.61,2.23,2.23,0,0,1-.54,1.6A1.93,1.93,0,0,1,262.81,426Zm6.22,0a2,2,0,0,1-1.48-.56,2.64,2.64,0,0,1,0-3.2,2,2,0,0,1,1.49-.56,1.9,1.9,0,0,1,1.49.59,2.61,2.61,0,0,1,0,3.15A1.9,1.9,0,0,1,269,426Z" style="fill:#fff"/><path d="M272.47,418.81a.16.16,0,0,1-.18-.18v-2.5q0-.14.18-.14h4.39V391.45h3.06v17.63a15,15,0,0,1,4.24-6.06,8.94,8.94,0,0,1,5.73-2q4.08,0,6.16,2.21t2.08,6.93V416h4.75q.19,0,.19.14v2.5q0,.18-.19.18ZM295.07,416v-5.71a7,7,0,0,0-1.45-4.89,5.7,5.7,0,0,0-4.39-1.56q-5.54,0-9.32,9.21v3Z" style="fill:#fff"/><path d="M302.52,418.81a.16.16,0,0,1-.18-.18v-2.5q0-.14.18-.14h4.75V391.45h3.2v27.35Z" style="fill:#fff"/><path d="M337.79,418.81a9.65,9.65,0,0,1-6.73-2.19,7.86,7.86,0,0,1-2.41-6.13,8.62,8.62,0,0,1,2.67-6.7,10.24,10.24,0,0,1,7.19-2.44h2.37v-2.27H344V416h4.1q.18,0,.18.14v2.5a.16.16,0,0,1-.18.18Zm3.09-2.81V404.15h-2.27a7,7,0,0,0-5,1.66,6.07,6.07,0,0,0-1.77,4.65,5.35,5.35,0,0,0,1.53,4.11,6.14,6.14,0,0,0,4.34,1.42Zm-5-20.23a2.11,2.11,0,0,1-1.43-.51,2.61,2.61,0,0,1,0-3.3,2.11,2.11,0,0,1,1.43-.51,2,2,0,0,1,1.46.55,2.2,2.2,0,0,1,.54,1.61,2.23,2.23,0,0,1-.54,1.6A1.93,1.93,0,0,1,335.92,395.76Zm6.22,0a2,2,0,0,1-1.48-.56,2.64,2.64,0,0,1,0-3.2,2,2,0,0,1,1.49-.56,1.9,1.9,0,0,1,1.49.59,2.61,2.61,0,0,1,0,3.15A1.9,1.9,0,0,1,342.15,395.76Z" style="fill:#fff"/><path d="M347.7,418.81a.16.16,0,0,1-.18-.18v-2.5q0-.14.18-.14h5.47a7,7,0,0,1-1.39-2.51,9.5,9.5,0,0,1-.47-2.92,8.74,8.74,0,0,1,2.66-6.75,10.19,10.19,0,0,1,7.2-2.46h4.71V416h3.81a.17.17,0,0,1,.16.09l0,.09v2.5q0,.14-.18.14ZM362.82,416V404.15h-1.55a6.94,6.94,0,0,0-5,1.7,6.22,6.22,0,0,0-1.78,4.72q0,5.43,4.92,5.43Zm-3.46-18.07a2,2,0,0,1-1.48-.56,2.64,2.64,0,0,1,0-3.2,2,2,0,0,1,1.49-.56,1.9,1.9,0,0,1,1.49.59,2.61,2.61,0,0,1,0,3.15A1.9,1.9,0,0,1,359.35,397.92Z" style="fill:#fff"/><path d="M369.34,418.81a.16.16,0,0,1-.18-.18v-2.5q0-.14.18-.14h5.84V401.35h3.2V416h5.4q.18,0,.18.14v2.5a.16.16,0,0,1-.18.18Zm4.43,7.21a2.11,2.11,0,0,1-1.43-.51,2.61,2.61,0,0,1,0-3.3,2.11,2.11,0,0,1,1.43-.51,2,2,0,0,1,1.46.55,2.2,2.2,0,0,1,.54,1.61,2.23,2.23,0,0,1-.54,1.6A1.93,1.93,0,0,1,373.77,426Zm6.22,0a2,2,0,0,1-1.48-.56,2.64,2.64,0,0,1,0-3.2,2,2,0,0,1,1.49-.56,1.9,1.9,0,0,1,1.49.59,2.61,2.61,0,0,1,0,3.15A1.9,1.9,0,0,1,380,426Z" style="fill:#fff"/><path d="M383.42,418.81a.16.16,0,0,1-.18-.18v-2.5q0-.14.18-.14h5.47a7,7,0,0,1-1.39-2.51,9.5,9.5,0,0,1-.47-2.92,8.74,8.74,0,0,1,2.66-6.75,10.19,10.19,0,0,1,7.2-2.46h4.71V416h3.81a.17.17,0,0,1,.16.09l0,.09v2.5q0,.14-.18.14ZM398.54,416V404.15H397a6.94,6.94,0,0,0-5,1.7,6.22,6.22,0,0,0-1.78,4.72q0,5.43,4.92,5.43Zm-3.46-18.07a2,2,0,0,1-1.48-.56,2.64,2.64,0,0,1,0-3.2,2,2,0,0,1,1.49-.56,1.9,1.9,0,0,1,1.49.59,2.61,2.61,0,0,1,0,3.15A1.9,1.9,0,0,1,395.07,397.92Z" style="fill:#fff"/><path d="M405.06,418.81a.16.16,0,0,1-.18-.18v-2.5q0-.14.18-.14h15.43q-1.32-1.32-2.27-6.59a9.86,9.86,0,0,0-1.53-4.36,3.62,3.62,0,0,0-3-1.25,11.17,11.17,0,0,0-5.22,1.44l-1.25-2.48a10.24,10.24,0,0,1,3.12-1.39,14.15,14.15,0,0,1,3.38-.39,7.71,7.71,0,0,1,3.67.79,5.8,5.8,0,0,1,2.35,2.35,13.74,13.74,0,0,1,1.33,4.46,27.31,27.31,0,0,0,1.19,5,6.4,6.4,0,0,0,1.52,2.52v2.74Zm9.07-20.88a2,2,0,0,1-1.48-.56,2.64,2.64,0,0,1,0-3.2,2,2,0,0,1,1.49-.56,1.9,1.9,0,0,1,1.49.59,2.61,2.61,0,0,1,0,3.15A1.9,1.9,0,0,1,414.13,397.92Z" style="fill:#fff"/><path d="M447.42,418.81a6.53,6.53,0,0,1-4.92-1.87,7,7,0,0,1-1.81-5.11,17.41,17.41,0,0,1,.25-2.76,15.49,15.49,0,0,1,.64-2.65h2.88a25.07,25.07,0,0,0-.54,5.15,5.16,5.16,0,0,0,.93,3.2,2.94,2.94,0,0,0,2.46,1.23h12.92V401.35h3.06v17.46Zm1.44-17.47a2.11,2.11,0,0,1-1.43-.51,2.61,2.61,0,0,1,0-3.3,2.11,2.11,0,0,1,1.43-.51,2,2,0,0,1,1.46.55,2.2,2.2,0,0,1,.54,1.61,2.23,2.23,0,0,1-.54,1.6A1.93,1.93,0,0,1,448.86,401.33Zm6.22,0a2,2,0,0,1-1.48-.56,2.64,2.64,0,0,1,0-3.2,2,2,0,0,1,1.49-.56,1.9,1.9,0,0,1,1.49.59,2.61,2.61,0,0,1,0,3.15A1.9,1.9,0,0,1,455.08,401.33Z" style="fill:#fff"/><path d="M468,416H476l-4.64-19.69h3.34L479.38,416h1q3.81,0,3.81-4.17V391.45h3.2v20.79a6.4,6.4,0,0,1-1.81,4.77,6.61,6.61,0,0,1-4.85,1.78H468Z" style="fill:#fff"/><path d="M494.21,391.45h3.2V416h4.75q.19,0,.19.14v2.5q0,.18-.19.18h-7.95Z" style="fill:#fff"/><path d="M501.81,418.81a.16.16,0,0,1-.18-.18v-2.5q0-.14.18-.14h5.47a7,7,0,0,1-1.39-2.51,9.5,9.5,0,0,1-.47-2.92,8.74,8.74,0,0,1,2.66-6.75,10.19,10.19,0,0,1,7.2-2.46H520V416h3.81a.17.17,0,0,1,.16.09l0,.09v2.5q0,.14-.18.14ZM516.92,416V404.15h-1.55a6.94,6.94,0,0,0-5,1.7,6.22,6.22,0,0,0-1.78,4.72q0,5.43,4.92,5.43Zm-6-18.07a2.11,2.11,0,0,1-1.43-.51,2.61,2.61,0,0,1,0-3.3,2.11,2.11,0,0,1,1.43-.51,2,2,0,0,1,1.46.55,2.2,2.2,0,0,1,.54,1.61,2.23,2.23,0,0,1-.54,1.6A1.93,1.93,0,0,1,510.95,397.92Zm6.22,0a2,2,0,0,1-1.48-.56,2.64,2.64,0,0,1,0-3.2,2,2,0,0,1,1.49-.56,1.9,1.9,0,0,1,1.49.59,2.61,2.61,0,0,1,0,3.15A1.9,1.9,0,0,1,517.17,397.92Z" style="fill:#fff"/><path d="M523.45,418.81a.16.16,0,0,1-.18-.18v-2.5q0-.14.18-.14h4.46a17.49,17.49,0,0,1-1.34-6.15,12.29,12.29,0,0,1,1.3-5.73,10.45,10.45,0,0,1,3-1.76,9.88,9.88,0,0,1,3.55-.65,7.71,7.71,0,0,1,4,1,6.6,6.6,0,0,1,2.62,2.82,9.15,9.15,0,0,1,.91,4.15,10.81,10.81,0,0,1-1,4.89,7.39,7.39,0,0,1-2.9,3.16,8.3,8.3,0,0,1-4.28,1.1Zm6.36-9.58a16.78,16.78,0,0,0,1.37,6.77h2.55a4.41,4.41,0,0,0,3.69-1.63,7.53,7.53,0,0,0,1.28-4.73,5.49,5.49,0,0,0-1.24-3.71,3.84,3.84,0,0,0-3-1.44,6.44,6.44,0,0,0-2.24.4,7.27,7.27,0,0,0-2,1.07,5.51,5.51,0,0,0-.37,1.54Q529.81,408.28,529.81,409.23Z" style="fill:#fff"/><path d="M567.22,419.16a7.59,7.59,0,0,1-8.35-8.35,11.21,11.21,0,0,1,1.1-4.92,8.85,8.85,0,0,1,3-3.59,7.55,7.55,0,0,1,4.32-1.31,7.2,7.2,0,0,1,4.17,1.34,9.27,9.27,0,0,1,3.07,3.67,10.91,10.91,0,0,1,1.13,4.82q0,4.08-2.14,6.21T567.22,419.16Zm-3.52-21.23a2.11,2.11,0,0,1-1.43-.51,2.61,2.61,0,0,1,0-3.3,2.11,2.11,0,0,1,1.43-.51,2,2,0,0,1,1.46.55,2.2,2.2,0,0,1,.54,1.61,2.23,2.23,0,0,1-.54,1.6A1.93,1.93,0,0,1,563.7,397.92Zm3.59,18.47q5.15,0,5.15-5.55a8.71,8.71,0,0,0-1.37-5.18,4.58,4.58,0,0,0-7.49.06,8.3,8.3,0,0,0-1.48,5.12Q562.1,416.4,567.29,416.4Zm2.64-18.47a2,2,0,0,1-1.48-.56,2.64,2.64,0,0,1,0-3.2,2,2,0,0,1,1.49-.56,1.9,1.9,0,0,1,1.49.59,2.61,2.61,0,0,1,0,3.15A1.9,1.9,0,0,1,569.92,397.92Z" style="fill:#fff"/><path d="M580.36,416.5a7.51,7.51,0,0,0,1.16-.21l2-.37a4.92,4.92,0,0,1-1.65-2,6.58,6.58,0,0,1-.65-2.92,7.15,7.15,0,0,1,.92-3.73,6.06,6.06,0,0,1,2.62-2.37,8.83,8.83,0,0,1,3.91-.83,8.4,8.4,0,0,1,4.36,1.05l-.79,2.69a7.49,7.49,0,0,0-3.5-.93A4.27,4.27,0,0,0,585.6,408a4.4,4.4,0,0,0-1.09,3.22,4.93,4.93,0,0,0,.62,2.46,3.76,3.76,0,0,0,1.64,1.6l.79-.09q5.45-.7,6.66-.7v2.92a67.34,67.34,0,0,0-6.93.67q-5.17.67-6.94,1.05Z" style="fill:#fff"/><path d="M599.28,391.45h3.2v27.35h-3.2Z" style="fill:#fff"/><path d="M614.73,418.81v.86a8.94,8.94,0,0,1-1.65,5.71,5.73,5.73,0,0,1-4.76,2.07,8,8,0,0,1-3.67-1l.93-2.41a7.48,7.48,0,0,0,1.44.5,6.19,6.19,0,0,0,1.23.11,2.91,2.91,0,0,0,2.53-1.32,6,6,0,0,0,.91-3.48V401.35h3V416h4.45q.19,0,.19.14v2.5q0,.18-.19.18Z" style="fill:#fff"/><path d="M618.83,418.81a.16.16,0,0,1-.18-.18v-2.5q0-.14.18-.14h5.47a7,7,0,0,1-1.39-2.51,9.5,9.5,0,0,1-.47-2.92,8.74,8.74,0,0,1,2.66-6.75,10.19,10.19,0,0,1,7.2-2.46H637V416h3.81a.17.17,0,0,1,.16.09l0,.09v2.5q0,.14-.18.14ZM633.94,416V404.15H632.4a6.94,6.94,0,0,0-5,1.7,6.22,6.22,0,0,0-1.78,4.72q0,5.43,4.92,5.43Zm-6-18.07a2.11,2.11,0,0,1-1.43-.51,2.61,2.61,0,0,1,0-3.3,2.11,2.11,0,0,1,1.43-.51,2,2,0,0,1,1.46.55,2.2,2.2,0,0,1,.54,1.61,2.23,2.23,0,0,1-.54,1.6A1.93,1.93,0,0,1,628,397.92Zm6.22,0a2,2,0,0,1-1.48-.56,2.64,2.64,0,0,1,0-3.2,2,2,0,0,1,1.49-.56,1.9,1.9,0,0,1,1.49.59,2.61,2.61,0,0,1,0,3.15A1.9,1.9,0,0,1,634.19,397.92Z" style="fill:#fff"/><path d="M640.46,418.81a.16.16,0,0,1-.18-.18v-2.5q0-.14.18-.14h4.75V401.35h3.2v17.46Zm6.19,7.21a2,2,0,0,1-1.48-.56,2.64,2.64,0,0,1,0-3.2,2,2,0,0,1,1.49-.56,1.9,1.9,0,0,1,1.49.59,2.61,2.61,0,0,1,0,3.15A1.9,1.9,0,0,1,646.65,426Z" style="fill:#fff"/><path d="M672.77,418.81a6.92,6.92,0,0,1-5-1.67,6.34,6.34,0,0,1-1.73-4.78,14.11,14.11,0,0,1,.9-4.85h2.71a22.41,22.41,0,0,0-.54,4.61,4,4,0,0,0,1,2.85,3.38,3.38,0,0,0,2.61,1h12.92V391.45h3.06V416h4.8q.18,0,.18.14v2.5a.16.16,0,0,1-.18.18ZM674,406l1.69-.25a2.58,2.58,0,0,1-1.27-2.27,3,3,0,0,1,1-2.39,4,4,0,0,1,2.67-.86,5,5,0,0,1,2.37.54l-.53,1.62a3.54,3.54,0,0,0-1.81-.44,2,2,0,0,0-1.33.45,1.72,1.72,0,0,0-.54,1.4,1.75,1.75,0,0,0,.31,1,1.92,1.92,0,0,0,.76.64q.42-.09,1.76-.27a16.1,16.1,0,0,1,1.85-.18v1.76q-.3,0-1.58.13t-1.9.22q-3.11.44-3.46.51Z" style="fill:#fff"/><path d="M716.54,418.81a8.07,8.07,0,0,1-3-.54,8.68,8.68,0,0,1-2.82-2,6,6,0,0,1-2.11,1.81,6.6,6.6,0,0,1-3.15.7H693.08a.16.16,0,0,1-.18-.18v-2.5q0-.14.18-.14h5.15V404.15h3.06V416h3.88a3.34,3.34,0,0,0,2.71-1.15,4.53,4.53,0,0,0,1-3v-7.68h3.06v8.65l0,.4a5.8,5.8,0,0,0,2,2.17,5.31,5.31,0,0,0,2.72.62h2.2V401.35h3.06V416h4.82q.19,0,.19.14v2.5q0,.18-.19.18Z" style="fill:#fff"/><path d="M726.26,418.81a.16.16,0,0,1-.18-.18v-2.5q0-.14.18-.14h5.47a7,7,0,0,1-1.39-2.51,9.5,9.5,0,0,1-.47-2.92,8.74,8.74,0,0,1,2.66-6.75,10.19,10.19,0,0,1,7.2-2.46h4.71V416h3.81a.17.17,0,0,1,.16.09l0,.09v2.5q0,.14-.18.14ZM741.38,416V404.15h-1.55a6.94,6.94,0,0,0-5,1.7,6.22,6.22,0,0,0-1.78,4.72q0,5.43,4.92,5.43Zm-3.46-18.07a2,2,0,0,1-1.48-.56,2.64,2.64,0,0,1,0-3.2,2,2,0,0,1,1.49-.56,1.9,1.9,0,0,1,1.49.59,2.61,2.61,0,0,1,0,3.15A1.9,1.9,0,0,1,737.92,397.92Z" style="fill:#fff"/><path d="M747.9,418.81a.16.16,0,0,1-.18-.18v-2.5q0-.14.18-.14h4.75V401.35h3.2v17.46Zm6.33-20.88a2,2,0,0,1-1.48-.56,2.64,2.64,0,0,1,0-3.2,2,2,0,0,1,1.49-.56,1.9,1.9,0,0,1,1.49.59,2.61,2.61,0,0,1,0,3.15A1.9,1.9,0,0,1,754.23,397.92Z" style="fill:#fff"/><path d="M792.27,418.81q-.05,4.27-2.21,6.46t-6.75,2.19h-2.58a6.52,6.52,0,0,1-5.31-2.34,9.66,9.66,0,0,1-1.93-6.35,21.07,21.07,0,0,1,1.48-8h3a21.21,21.21,0,0,0-1.23,7.75,7.27,7.27,0,0,0,1.21,4.5,4.12,4.12,0,0,0,3.48,1.58h1.76a6.37,6.37,0,0,0,4.59-1.42,5.82,5.82,0,0,0,1.46-4.34V401.35h3.06V416h4q.19,0,.19.14v2.5q0,.18-.19.18ZM783,401.33a2,2,0,0,1-1.48-.56,2.64,2.64,0,0,1,0-3.2A2,2,0,0,1,783,397a1.9,1.9,0,0,1,1.49.59,2.61,2.61,0,0,1,0,3.15A1.9,1.9,0,0,1,783,401.33Z" style="fill:#fff"/><path d="M795.87,418.81a.16.16,0,0,1-.18-.18v-2.5q0-.14.18-.14h5.54a6.85,6.85,0,0,1-1.85-2.65,9.64,9.64,0,0,1-.7-3.74,8,8,0,0,1,8.56-8.61,12.48,12.48,0,0,1,2.86.31,9.33,9.33,0,0,1,2.15.75l-1,2.69a11,11,0,0,0-4.22-.93q-5.12,0-5.12,5.94a7.69,7.69,0,0,0,1.22,4.53,3.76,3.76,0,0,0,3.21,1.73H813v2.81Z" style="fill:#fff"/><path d="M835.93,430.35a7.85,7.85,0,0,1-5.48-1.82,6.57,6.57,0,0,1-2-5.12,7.13,7.13,0,0,1,1.35-4.2,12.32,12.32,0,0,1,4.24-3.5,40.66,40.66,0,0,1,7.95-3.06,24.62,24.62,0,0,1-.72-3.25,8,8,0,0,0-1.77-4.23,4.55,4.55,0,0,0-3.49-1.38,11.54,11.54,0,0,0-3.09.52,15.76,15.76,0,0,0-3.2,1.27l-1.27-2.48a13.38,13.38,0,0,1,3.48-1.51A14.53,14.53,0,0,1,836,401q6.89,0,8.07,7.59a24.65,24.65,0,0,0,1.11,4.76,4.65,4.65,0,0,0,1.42,2,3.67,3.67,0,0,0,2.29.67h.19q.18,0,.18.14v2.5a.16.16,0,0,1-.18.18h-.19a6.21,6.21,0,0,1-5.92-3.6,39,39,0,0,0-6.68,2.35,10.08,10.08,0,0,0-3.48,2.56,4.75,4.75,0,0,0-1.11,3,4.1,4.1,0,0,0,1.34,3.38,6.58,6.58,0,0,0,4.17,1.08,35,35,0,0,0,5.29-.58l.39,2.48q-2.55.54-4,.7A27.87,27.87,0,0,1,835.93,430.35Z" style="fill:#fff"/><path d="M848.75,418.81a.16.16,0,0,1-.18-.18v-2.5q0-.14.18-.14h6.91V401.35h3.2v17.46Zm2.34,7.21a2.11,2.11,0,0,1-1.43-.51,2.61,2.61,0,0,1,0-3.3,2.11,2.11,0,0,1,1.43-.51,2,2,0,0,1,1.46.55,2.2,2.2,0,0,1,.54,1.61,2.23,2.23,0,0,1-.54,1.6A1.93,1.93,0,0,1,851.08,426Zm6.22,0a2,2,0,0,1-1.48-.56,2.64,2.64,0,0,1,0-3.2,2,2,0,0,1,1.49-.56,1.9,1.9,0,0,1,1.49.59,2.61,2.61,0,0,1,0,3.15A1.9,1.9,0,0,1,857.31,426Z" style="fill:#fff"/><path d="M871.21,427.45a11.55,11.55,0,0,1-6.49-1.85l1.44-2.41a15.89,15.89,0,0,0,2.39,1,8.52,8.52,0,0,0,2.72.41,5.36,5.36,0,0,0,3.83-1.31,4.57,4.57,0,0,0,1.39-3.49v-1H873A8,8,0,0,1,867,416.7a8.28,8.28,0,0,1-2.1-6.1,8.77,8.77,0,0,1,2.69-6.74,10.13,10.13,0,0,1,7.19-2.5h4.71v18.32a7.51,7.51,0,0,1-2.17,5.73A8.58,8.58,0,0,1,871.21,427.45ZM876.47,416V404.15h-1.55a7,7,0,0,0-5,1.69,6.19,6.19,0,0,0-1.78,4.73,5.89,5.89,0,0,0,1.22,4.12,4.83,4.83,0,0,0,3.7,1.31Z" style="fill:#fff"/><path d="M891.23,418.81v.86a8.94,8.94,0,0,1-1.65,5.71,5.73,5.73,0,0,1-4.76,2.07,8,8,0,0,1-3.67-1l.93-2.41a7.48,7.48,0,0,0,1.44.5,6.19,6.19,0,0,0,1.23.11,2.91,2.91,0,0,0,2.53-1.32,6,6,0,0,0,.91-3.48V401.35h3V416h4.45q.19,0,.19.14v2.5q0,.18-.19.18Z" style="fill:#fff"/><path d="M895.33,418.81a.16.16,0,0,1-.18-.18v-2.5q0-.14.18-.14h5.84V401.35h3.2V416h5.4q.18,0,.18.14v2.5a.16.16,0,0,1-.18.18Zm4.29-20.88a2.11,2.11,0,0,1-1.43-.51,2.61,2.61,0,0,1,0-3.3,2.11,2.11,0,0,1,1.43-.51,2,2,0,0,1,1.46.55,2.2,2.2,0,0,1,.54,1.61,2.23,2.23,0,0,1-.54,1.6A1.93,1.93,0,0,1,899.62,397.92Zm6.22,0a2,2,0,0,1-1.48-.56,2.64,2.64,0,0,1,0-3.2,2,2,0,0,1,1.49-.56,1.9,1.9,0,0,1,1.49.59,2.61,2.61,0,0,1,0,3.15A1.9,1.9,0,0,1,905.84,397.92Z" style="fill:#fff"/><path d="M909.41,418.81a.16.16,0,0,1-.18-.18v-2.5q0-.14.18-.14h4.75V391.45h3.2v27.35Z" style="fill:#fff"/><path d="M924.56,391.45h3.2V416h4.75q.19,0,.19.14v2.5q0,.18-.19.18h-7.95Z" style="fill:#fff"/><path d="M932.16,418.81a.16.16,0,0,1-.18-.18v-2.5q0-.14.18-.14h4.75V401.35h3.2v17.46Zm6.19,7.21a2,2,0,0,1-1.48-.56,2.64,2.64,0,0,1,0-3.2,2,2,0,0,1,1.49-.56,1.9,1.9,0,0,1,1.49.59,2.61,2.61,0,0,1,0,3.15A1.9,1.9,0,0,1,938.34,426Z" style="fill:#fff"/><path d="M963.32,418.81q-2.57,0-2.57,2.64v8.88h-3V420.9a5.59,5.59,0,0,1,.58-2.65,4.13,4.13,0,0,1,1.57-1.67,4.36,4.36,0,0,1,2.24-.58h.25a17.38,17.38,0,0,1-1.32-6.15,12.5,12.5,0,0,1,1.28-5.73,10.7,10.7,0,0,1,3-1.76,9.88,9.88,0,0,1,3.55-.65,7.71,7.71,0,0,1,4,1,6.6,6.6,0,0,1,2.62,2.82,9.15,9.15,0,0,1,.91,4.15,11.54,11.54,0,0,1-.76,4.24,4.31,4.31,0,0,0,1.76,1.65,6.07,6.07,0,0,0,2.5.44h.18q.18,0,.18.14v2.5a.16.16,0,0,1-.18.18h-.18a9,9,0,0,1-3.27-.53,7.44,7.44,0,0,1-2.6-1.81,7.1,7.1,0,0,1-2.66,1.77,9,9,0,0,1-3.17.57Zm1-9.58a18.44,18.44,0,0,0,.29,3.28,16.77,16.77,0,0,0,1.08,3.49h2.55a4.41,4.41,0,0,0,3.69-1.63,7.53,7.53,0,0,0,1.28-4.73,5.49,5.49,0,0,0-1.24-3.71,3.84,3.84,0,0,0-3-1.44,6.85,6.85,0,0,0-4.22,1.48,5.29,5.29,0,0,0-.36,1.54Q964.29,408.28,964.29,409.23Z" style="fill:#fff"/><path d="M979.74,418.81a.16.16,0,0,1-.18-.18v-2.5q0-.14.18-.14h5.47a7,7,0,0,1-1.39-2.51,9.5,9.5,0,0,1-.47-2.92,8.79,8.79,0,0,1,2.65-6.71,10.09,10.09,0,0,1,7.22-2.5h4.71v17.46ZM994.86,416V404.15h-1.55a7,7,0,0,0-5,1.67,6.14,6.14,0,0,0-1.78,4.71q0,5.47,4.92,5.47Zm-6-18.07a2.11,2.11,0,0,1-1.43-.51,2.61,2.61,0,0,1,0-3.3,2.11,2.11,0,0,1,1.43-.51,2,2,0,0,1,1.46.55,2.2,2.2,0,0,1,.54,1.61,2.23,2.23,0,0,1-.54,1.6A1.93,1.93,0,0,1,988.88,397.92Zm6.22,0a2,2,0,0,1-1.48-.56,2.64,2.64,0,0,1,0-3.2,2,2,0,0,1,1.49-.56,1.9,1.9,0,0,1,1.49.59,2.61,2.61,0,0,1,0,3.15A1.9,1.9,0,0,1,995.1,397.92Z" style="fill:#fff"/><path d="M255.32,334.73a11.84,11.84,0,0,1-4.39-.73,11,11,0,0,1-3.76-2.79q-.52-.54-2.44-3.23a24.6,24.6,0,0,0-3.56-4.23,3.92,3.92,0,0,0-2.44-1.07,3.75,3.75,0,0,0-1.95.8,8.27,8.27,0,0,0-2,1.85,3.22,3.22,0,0,0-.8,1.8,2.21,2.21,0,0,0,.83,1.71,8,8,0,0,0,2.64,1.34,21.65,21.65,0,0,1,4.54,2,6,6,0,0,1,2.94,5.41,7.24,7.24,0,0,1-3.43,6.47q-3.43,2.23-10.35,2.23H219.86a9.17,9.17,0,0,1-5-1.39,9.34,9.34,0,0,1-3.46-3.9,12.65,12.65,0,0,1-1.23-5.65,28.91,28.91,0,0,1,1.55-9.28h6.38a20.88,20.88,0,0,0-.81,3.77,41.22,41.22,0,0,0-.2,4.45,6.33,6.33,0,0,0,.81,3.11,6.14,6.14,0,0,0,2.14,2.3,5.16,5.16,0,0,0,2.77.83h8.3a16,16,0,0,0,5.31-.59,2,2,0,0,0,1.42-2,1.69,1.69,0,0,0-.79-1.39,7.94,7.94,0,0,0-2.52-1q-4-1-5.6-2.74a6.56,6.56,0,0,1-1.57-4.62,9.62,9.62,0,0,1,1.82-5.26,16.13,16.13,0,0,1,4.7-4.64,10.15,10.15,0,0,1,5.53-1.89,6.82,6.82,0,0,1,2.86.6,9,9,0,0,1,2.54,1.8,43.48,43.48,0,0,1,4,5.19A17.2,17.2,0,0,0,252.4,328a5.05,5.05,0,0,0,2.92.93h.23q.26,0,.26.19v5.34q0,.23-.26.23Zm-31.73,23.39a3.06,3.06,0,0,1-2.34-.93,3.54,3.54,0,0,1-.87-2.52,3.6,3.6,0,0,1,.86-2.54,3,3,0,0,1,2.36-.93,3,3,0,0,1,2.32.91,3.63,3.63,0,0,1,.84,2.55,3.52,3.52,0,0,1-.87,2.54A3,3,0,0,1,223.58,358.13Zm8.16,0a3.06,3.06,0,0,1-2.34-.93,3.54,3.54,0,0,1-.87-2.52,3.6,3.6,0,0,1,.86-2.54,3,3,0,0,1,2.36-.93,3,3,0,0,1,2.34.93,3.63,3.63,0,0,1,.84,2.54,3.51,3.51,0,0,1-.88,2.52A3,3,0,0,1,231.74,358.13Z" style="fill:#f7ca16"/><path d="M255.08,334.73a.21.21,0,0,1-.23-.23v-5.34q0-.19.23-.19h7.38a6,6,0,0,1-2.84-2.7,8.54,8.54,0,0,1-1.05-4.22,10.63,10.63,0,0,1,3.55-8.47q3.55-3.08,9.71-3.08a22.21,22.21,0,0,1,4.42.47,16.36,16.36,0,0,1,3.64,1.1l-2,5.63a18.46,18.46,0,0,0-3.3-1.11,13.84,13.84,0,0,0-3-.32,6.29,6.29,0,0,0-4.57,1.57,6,6,0,0,0-1.62,4.52,6.85,6.85,0,0,0,1.66,4.76,5.72,5.72,0,0,0,4.48,1.85h8.79v5.77Z" style="fill:#f7ca16"/><path d="M287.33,298.27h7.15v36.47h-7.15Z" style="fill:#f7ca16"/><path d="M322.46,329q.23,0,.23.19v5.34a.21.21,0,0,1-.23.23h-6.23v.77a11,11,0,0,1-2.73,7.85,9.54,9.54,0,0,1-7.3,2.91,16.38,16.38,0,0,1-4.51-.59,15.57,15.57,0,0,1-4.32-2.11l2.88-4.66a9.91,9.91,0,0,0,2.24,1.1,7.85,7.85,0,0,0,2.33.3,3.77,3.77,0,0,0,3.09-1.46,5.72,5.72,0,0,0,1.17-3.69V311h7.15v18Z" style="fill:#f7ca16"/><path d="M322,334.73a.21.21,0,0,1-.23-.23v-5.34q0-.19.23-.19h8.39V311h7.15v23.77Zm3.87,12a3.06,3.06,0,0,1-2.34-.93,3.54,3.54,0,0,1-.87-2.52,3.6,3.6,0,0,1,.86-2.54,3,3,0,0,1,2.36-.93,3,3,0,0,1,2.32.91,3.63,3.63,0,0,1,.84,2.55,3.52,3.52,0,0,1-.87,2.54A3,3,0,0,1,325.86,346.73Zm8.16,0a3.06,3.06,0,0,1-2.34-.93,3.54,3.54,0,0,1-.87-2.52,3.6,3.6,0,0,1,.86-2.54,3,3,0,0,1,2.36-.93,3,3,0,0,1,2.34.93,3.63,3.63,0,0,1,.84,2.54,3.51,3.51,0,0,1-.88,2.52A3,3,0,0,1,334,346.73Z" style="fill:#f7ca16"/><path d="M389.61,329q.23,0,.23.19v5.34a.21.21,0,0,1-.23.23H375.06q-6.66,0-10.34-3.11A10.72,10.72,0,0,1,361,323a11.74,11.74,0,0,1,1.69-6.28,11.06,11.06,0,0,1,4.84-4.23,17.4,17.4,0,0,1,7.49-1.49h1.34v-2.34h7.22V329Zm-13.15,0V316.73H375.2a7.23,7.23,0,0,0-5.05,1.62,6,6,0,0,0-1.77,4.66,5.6,5.6,0,0,0,1.73,4.41,7.26,7.26,0,0,0,5,1.55ZM372,305.6a3.06,3.06,0,0,1-2.34-.93,3.54,3.54,0,0,1-.87-2.52,3.6,3.6,0,0,1,.86-2.54,3,3,0,0,1,2.36-.93,3,3,0,0,1,2.32.91,3.63,3.63,0,0,1,.84,2.55,3.52,3.52,0,0,1-.87,2.54A3,3,0,0,1,372,305.6Zm8.16,0a3.06,3.06,0,0,1-2.34-.93,3.54,3.54,0,0,1-.87-2.52,3.6,3.6,0,0,1,.86-2.54,3,3,0,0,1,2.36-.93,3,3,0,0,1,2.34.93,3.63,3.63,0,0,1,.84,2.54,3.51,3.51,0,0,1-.88,2.52A3,3,0,0,1,380.14,305.6Z" style="fill:#f7ca16"/><path d="M389.12,334.73a.21.21,0,0,1-.23-.23v-5.34q0-.19.23-.19h5.65V311h7.17v8.41q4.38-8.88,13-8.88,5.88,0,8.88,3.11t3,9.6V329h6.26q.23,0,.23.19v5.34a.21.21,0,0,1-.23.23ZM419.68,329v-5.91q0-3.49-1.61-5.14a6.64,6.64,0,0,0-5-1.65q-6.47,0-11.18,9V329Z" style="fill:#f7ca16"/><path d="M452,329q.23,0,.23.19v5.34a.21.21,0,0,1-.23.23H432.6a.21.21,0,0,1-.23-.23v-5.34q0-.19.23-.19h6V311h7.15v18Zm-9.87-22.12a3.09,3.09,0,0,1-2.37-.93,3.54,3.54,0,0,1-.87-2.52,3.6,3.6,0,0,1,.86-2.54,3.08,3.08,0,0,1,2.38-.93,3,3,0,0,1,2.31.91,3.59,3.59,0,0,1,.86,2.55,3.51,3.51,0,0,1-.88,2.52A3,3,0,0,1,442.11,306.84Z" style="fill:#f7ca16"/><path d="M456.93,329a16.35,16.35,0,0,1-1.29-6.61,16.15,16.15,0,0,1,.7-4.5,17.91,17.91,0,0,1,1.73-4.15,20.54,20.54,0,0,1,4.93-2,18,18,0,0,1,4.58-.7,12.65,12.65,0,0,1,6,1.41,10.1,10.1,0,0,1,4.16,4,11.75,11.75,0,0,1,1.48,6,12.26,12.26,0,0,1-1.7,6.47,11.68,11.68,0,0,1-4.72,4.38,14.27,14.27,0,0,1-6.68,1.57H451.51a.21.21,0,0,1-.23-.23v-5.34q0-.19.23-.19Zm5.34-5.6a17.33,17.33,0,0,0,1.1,5.6h1.8A6.62,6.62,0,0,0,470,327a6.4,6.4,0,0,0,2-4.71,6.21,6.21,0,0,0-1.24-4.07,4.06,4.06,0,0,0-3.3-1.51,9,9,0,0,0-4.48,1.34A19.7,19.7,0,0,0,462.27,323.37Z" style="fill:#f7ca16"/><path d="M546.39,334.73A11.84,11.84,0,0,1,542,334a11,11,0,0,1-3.76-2.79q-.52-.54-2.44-3.23a24.6,24.6,0,0,0-3.56-4.23,3.92,3.92,0,0,0-2.44-1.07,3.75,3.75,0,0,0-1.95.8,8.27,8.27,0,0,0-2,1.85,3.22,3.22,0,0,0-.8,1.8,2.21,2.21,0,0,0,.83,1.71,8,8,0,0,0,2.64,1.34,21.65,21.65,0,0,1,4.54,2,6,6,0,0,1,2.94,5.41,7.24,7.24,0,0,1-3.43,6.47q-3.43,2.23-10.35,2.23H510.93a9.17,9.17,0,0,1-5-1.39,9.34,9.34,0,0,1-3.46-3.9,12.65,12.65,0,0,1-1.23-5.65,28.91,28.91,0,0,1,1.55-9.28h6.38a20.88,20.88,0,0,0-.81,3.77,41.22,41.22,0,0,0-.2,4.45,6.33,6.33,0,0,0,.81,3.11,6.14,6.14,0,0,0,2.14,2.3,5.16,5.16,0,0,0,2.77.83h8.3a16,16,0,0,0,5.31-.59,2,2,0,0,0,1.42-2,1.69,1.69,0,0,0-.79-1.39,7.94,7.94,0,0,0-2.52-1q-4-1-5.6-2.74a6.56,6.56,0,0,1-1.57-4.62,9.62,9.62,0,0,1,1.82-5.26,16.13,16.13,0,0,1,4.7-4.64,10.15,10.15,0,0,1,5.53-1.89,6.82,6.82,0,0,1,2.86.6,9,9,0,0,1,2.54,1.8,43.48,43.48,0,0,1,4,5.19,17.2,17.2,0,0,0,3.55,4.09,5.05,5.05,0,0,0,2.92.93h.23q.26,0,.26.19v5.34q0,.23-.26.23Zm-31.73,23.39a3.06,3.06,0,0,1-2.34-.93,3.54,3.54,0,0,1-.87-2.52,3.6,3.6,0,0,1,.86-2.54,3,3,0,0,1,2.36-.93,3,3,0,0,1,2.32.91,3.63,3.63,0,0,1,.84,2.55,3.52,3.52,0,0,1-.87,2.54A3,3,0,0,1,514.65,358.13Zm8.16,0a3.06,3.06,0,0,1-2.34-.93,3.54,3.54,0,0,1-.87-2.52,3.6,3.6,0,0,1,.86-2.54,3,3,0,0,1,2.36-.93,3,3,0,0,1,2.34.93,3.63,3.63,0,0,1,.84,2.54,3.51,3.51,0,0,1-.88,2.52A3,3,0,0,1,522.81,358.13Z" style="fill:#f7ca16"/><path d="M553,329a9.51,9.51,0,0,1-2.32-6.33,10.61,10.61,0,0,1,3.7-8.52q3.7-3.15,10.31-3.15h8.55v23.77H546.15a.21.21,0,0,1-.23-.23v-5.34q0-.19.23-.19Zm13.1,0V316.73h-1.27a7.23,7.23,0,0,0-5,1.61,6,6,0,0,0-1.78,4.68,5.62,5.62,0,0,0,1.72,4.41,7.22,7.22,0,0,0,5,1.55Zm-1.92-22.12a3.09,3.09,0,0,1-2.37-.93,3.54,3.54,0,0,1-.87-2.52,3.6,3.6,0,0,1,.86-2.54,3.08,3.08,0,0,1,2.38-.93,3,3,0,0,1,2.31.91,3.59,3.59,0,0,1,.86,2.55,3.51,3.51,0,0,1-.88,2.52A3,3,0,0,1,564.2,306.84Z" style="fill:#f7ca16"/><path d="M629.29,334.73a12,12,0,0,1-4.39-.73,10.09,10.09,0,0,1-3.53-2.48,12.69,12.69,0,0,1-4.22,2.4,15.05,15.05,0,0,1-4.9.81h-4.43a4.25,4.25,0,0,0-3,.86,3.89,3.89,0,0,0-.87,2.85v11.65h-7.15v-14a7.26,7.26,0,0,1,1.64-5,6.52,6.52,0,0,1,4.64-2.06,16.91,16.91,0,0,1-1.29-6.66,16.21,16.21,0,0,1,.73-4.57,16.65,16.65,0,0,1,1.73-4.08,20.2,20.2,0,0,1,4.78-2,17.6,17.6,0,0,1,4.71-.74,12.67,12.67,0,0,1,6,1.39,10.15,10.15,0,0,1,4.17,4,11.68,11.68,0,0,1,1.5,6,13.3,13.3,0,0,1-.91,4.88,4.76,4.76,0,0,0,2,1.38,8.69,8.69,0,0,0,2.86.4h.23q.23,0,.23.19v5.34a.21.21,0,0,1-.23.23ZM608.4,323.37a17.33,17.33,0,0,0,1.1,5.6h1.83a6.59,6.59,0,0,0,4.84-1.95,6.4,6.4,0,0,0,2-4.71,6.14,6.14,0,0,0-1.25-4.1,4.11,4.11,0,0,0-3.29-1.48,9,9,0,0,0-4.48,1.34A19.7,19.7,0,0,0,608.4,323.37Z" style="fill:#f7ca16"/><path d="M629.05,334.73a.21.21,0,0,1-.23-.23v-5.34q0-.19.23-.19h18.77v-7.71a5.3,5.3,0,0,0-2-4.45,9,9,0,0,0-5.65-1.55H632v-5.2a29.09,29.09,0,0,1,7.16-9.46,32.54,32.54,0,0,1,10.75-6.27l2.63,6.42a28.69,28.69,0,0,0-7.8,3.73,18.73,18.73,0,0,0-5.3,5h1.83q13.69,0,13.69,10.85V329h6.23q.23,0,.23.19v5.34a.21.21,0,0,1-.23.23Z" style="fill:#f7ca16"/><path d="M660.74,334.73a.21.21,0,0,1-.23-.23v-5.34q0-.19.23-.19h6V311h7.15v23.77Zm9.16,12a3.09,3.09,0,0,1-2.37-.93,3.54,3.54,0,0,1-.87-2.52,3.6,3.6,0,0,1,.86-2.54,3.08,3.08,0,0,1,2.38-.93,3,3,0,0,1,2.31.91,3.59,3.59,0,0,1,.86,2.55,3.51,3.51,0,0,1-.88,2.52A3,3,0,0,1,669.9,346.73Z" style="fill:#f7ca16"/><path d="M712.23,329q.23,0,.23.19v5.34a.21.21,0,0,1-.23.23H699.08V298.27h7.15V329Z" style="fill:#f7ca16"/><path d="M731.14,329q.23,0,.23.19v5.34a.21.21,0,0,1-.23.23H711.76a.21.21,0,0,1-.23-.23v-5.34q0-.19.23-.19h6V311h7.15v18Zm-10,17.77a3.09,3.09,0,0,1-2.37-.93,3.54,3.54,0,0,1-.87-2.52,3.6,3.6,0,0,1,.86-2.54,3.08,3.08,0,0,1,2.38-.93,3,3,0,0,1,2.31.91,3.59,3.59,0,0,1,.86,2.55,3.51,3.51,0,0,1-.88,2.52A3,3,0,0,1,721.18,346.73Z" style="fill:#f7ca16"/><path d="M730.68,334.73a.21.21,0,0,1-.23-.23v-5.34q0-.19.23-.19H750v0q-1.87-1.69-2.88-6.82a9.09,9.09,0,0,0-1.93-4.54,5.15,5.15,0,0,0-3.83-1.3,11.47,11.47,0,0,0-3.16.42,15.53,15.53,0,0,0-3.21,1.38l-2.16-5.27a20.94,20.94,0,0,1,10-2.3q4.8,0,7.48,2.16t3.52,7.1q1.24,7.15,3.35,9.21v5.77Z" style="fill:#f7ca16"/><path d="M783.5,329q.23,0,.23.19v5.34a.21.21,0,0,1-.23.23h-6.23v.77a11,11,0,0,1-2.73,7.85,9.54,9.54,0,0,1-7.3,2.91,16.38,16.38,0,0,1-4.51-.59,15.57,15.57,0,0,1-4.32-2.11l2.88-4.66a9.91,9.91,0,0,0,2.24,1.1,7.85,7.85,0,0,0,2.33.3,3.77,3.77,0,0,0,3.09-1.46,5.72,5.72,0,0,0,1.17-3.69V311h7.15v18Z" style="fill:#f7ca16"/><path d="M788.45,329a16.35,16.35,0,0,1-1.29-6.61,16.15,16.15,0,0,1,.7-4.5,17.91,17.91,0,0,1,1.73-4.15,20.54,20.54,0,0,1,4.93-2,18,18,0,0,1,4.58-.7,12.65,12.65,0,0,1,6,1.41,10.1,10.1,0,0,1,4.16,4,11.75,11.75,0,0,1,1.48,6,12.26,12.26,0,0,1-1.7,6.47,11.68,11.68,0,0,1-4.72,4.38,14.27,14.27,0,0,1-6.68,1.57H783a.21.21,0,0,1-.23-.23v-5.34q0-.19.23-.19Zm5.34-5.6a17.33,17.33,0,0,0,1.1,5.6h1.8a6.62,6.62,0,0,0,4.86-1.95,6.4,6.4,0,0,0,2-4.71,6.21,6.21,0,0,0-1.24-4.07,4.06,4.06,0,0,0-3.3-1.51,9,9,0,0,0-4.48,1.34A19.7,19.7,0,0,0,793.79,323.37Z" style="fill:#f7ca16"/></g></svg>